<?xml version="1.0" standalone="no"?>
<!DOCTYPE svg PUBLIC "-//W3C//DTD SVG 1.0//EN" "http://www.w3.org/TR/2001/REC-SVG-20010904/DTD/svg10.dtd">
<svg xmlns="http://www.w3.org/2000/svg" xmlns:xlink="http://www.w3.org/1999/xlink" id="body_1" width="20" height="20">

<g transform="matrix(1 0 0 1 0 0)">
    <path d="M20 4.481L9.08 4.481L11.78 1.2029998L10.22 0L7 3.909L3.78 0.029L2.22 1.203L4.92 4.481L0 4.481L0 20L20 20L20 4.481zM12 18.061L2 18.061L2 6.42L12 6.42L12 18.060001zM17 14.181001L15 14.181001L15 12.241001L17 12.241001L17 14.181002zM17 10.301001L15 10.301001L15 8.36L17 8.36L17 10.299999z" stroke="none" fill="#5A698F" fill-rule="nonzero" />
</g>
</svg>